# xmcd CD database file
#
# Track frame offsets:
#	150
#	26693
#	57792
#	92848
#	130987
#	159155
#	187660
#	216279
#
# Disc length: 3330 seconds
#
# Revision: 0
# Processed by: cddbd v1.5.1PL0 Copyright (c) Steve Scherf et al.
# Submitted via: CDex 1.51
#
DISCID=610d0008
DTITLE=Rudy Stevenson Band - Blues March Vol. 1 - Live
DYEAR=1900
DGENRE=Jazz
TTITLE0=Blues March
TTITLE1=All Blues
TTITLE2=Comin´Home
TTITLE3=Natural Woman
TTITLE4=Watermelon Man
TTITLE5=A Change
TTITLE6=A Night In Tunesia
TTITLE7=He´s The Boy
EXTD=
EXTT0=
EXTT1=
EXTT2=
EXTT3=
EXTT4=
EXTT5=
EXTT6=
EXTT7=
PLAYORDER=
